<svg width="18" height="18" viewBox="0 0 18 18" fill="none" xmlns="http://www.w3.org/2000/svg">
<path id="bg" d="M8.99609 0.5C4.30281 0.5 0.496094 4.30672 0.496094 9C0.496094 13.6933 4.30281 17.5 8.99609 17.5C13.6894 17.5 17.4961 13.6933 17.4961 9C17.4961 4.30672 13.6894 0.5 8.99609 0.5ZM13.4152 5.65712L8.60308 12.3292C8.53583 12.423 8.44716 12.4995 8.34444 12.5523C8.24172 12.6051 8.1279 12.6326 8.01242 12.6326C7.89694 12.6326 7.78313 12.6051 7.68041 12.5523C7.57769 12.4995 7.48902 12.423 7.42177 12.3292L4.57472 8.38078C4.48789 8.25968 4.57472 8.09059 4.72324 8.09059H5.79488C6.03023 8.09059 6.24959 8.20484 6.38668 8.39449L8.01357 10.652L11.6055 5.67083C11.7426 5.4789 11.9642 5.36694 12.1973 5.36694H13.2689C13.4175 5.36694 13.5043 5.53602 13.4152 5.65712Z" fill="#009F8D"/>
</svg>
