<svg width="16" height="17" viewBox="0 0 16 17" fill="none" xmlns="http://www.w3.org/2000/svg">
<path d="M14.6667 10.5382C14.6667 13.1182 12.58 15.2049 10 15.2049L10.7 14.0382" stroke="#36BAA6" stroke-linecap="round" stroke-linejoin="round"/>
<path d="M1.33325 6.53825C1.33325 3.95825 3.41992 1.87158 5.99992 1.87158L5.29992 3.03825" stroke="#36BAA6" stroke-linecap="round" stroke-linejoin="round"/>
<path d="M9.1333 3.50488L11.7866 5.03821L14.4132 3.51156" stroke="#36BAA6" stroke-linecap="round" stroke-linejoin="round"/>
<path d="M11.7866 7.75156V5.03156" stroke="#36BAA6" stroke-linecap="round" stroke-linejoin="round"/>
<path d="M11.1599 2.01158L9.5599 2.89822C9.1999 3.09822 8.8999 3.60488 8.8999 4.01821V5.71157C8.8999 6.12491 9.19324 6.63157 9.5599 6.83157L11.1599 7.71825C11.4999 7.91158 12.0599 7.91158 12.4066 7.71825L14.0066 6.83157C14.3666 6.63157 14.6666 6.12491 14.6666 5.71157V4.01821C14.6666 3.60488 14.3732 3.09822 14.0066 2.89822L12.4066 2.01158C12.0666 1.82492 11.5066 1.82492 11.1599 2.01158Z" stroke="#36BAA6" stroke-linecap="round" stroke-linejoin="round"/>
<path d="M1.56665 10.8382L4.21332 12.3715L6.84666 10.8449" stroke="#36BAA6" stroke-linecap="round" stroke-linejoin="round"/>
<path d="M4.21338 15.0849V12.3649" stroke="#36BAA6" stroke-linecap="round" stroke-linejoin="round"/>
<path d="M3.59325 9.34489L1.99326 10.2316C1.63326 10.4316 1.33325 10.9382 1.33325 11.3515V13.0449C1.33325 13.4582 1.62659 13.9649 1.99326 14.1649L3.59325 15.0516C3.93325 15.2449 4.49325 15.2449 4.83991 15.0516L6.43992 14.1649C6.79992 13.9649 7.09992 13.4582 7.09992 13.0449V11.3515C7.09992 10.9382 6.80659 10.4316 6.43992 10.2316L4.83991 9.34489C4.49325 9.15823 3.93325 9.15823 3.59325 9.34489Z" stroke="#36BAA6" stroke-linecap="round" stroke-linejoin="round"/>
</svg>
