<svg width="149" height="87" viewBox="0 0 149 87" fill="none" xmlns="http://www.w3.org/2000/svg">
<path d="M69.9196 17.9047H63.7764V36.298H69.9196V17.9047Z" fill="#3463AE"/>
<path d="M79.2496 17.9047H73.1064V36.298H79.2496V17.9047Z" fill="#3463AE"/>
<path d="M88.5807 17.9047H82.4375V36.298H88.5807V17.9047Z" fill="#3463AE"/>
<path d="M25.4455 85.5378H19.3204V72.4563H10.6236V85.5378H4.4986V72.4563H0V67.2015H4.4986V65.7641C4.4986 59.9421 8.24097 56.425 13.1954 56.425C16.0313 56.425 17.5049 56.8031 20.7941 57.5982L19.8099 62.7391C17.5049 62.2859 16.2566 61.9829 14.1769 61.9829C11.872 61.9829 10.6236 63.4203 10.6236 65.8781V67.2015H25.4429V85.5378H25.4455Z" fill="#36BAA6"/>
<path d="M47.9814 75.0636V85.537H41.82V76.0478C41.82 73.4398 40.4966 72.1914 38.492 72.1914C37.3577 72.1914 36.1482 72.8337 35.0889 74.0432V85.537H28.9639V67.2008H35.0889V68.4491C36.5626 67.2759 38.189 66.6336 40.1547 66.6336C44.8062 66.6336 47.9814 69.8476 47.9814 75.0636Z" fill="#36BAA6"/>
<path d="M70.3615 85.5328H64.2364V84.5124C62.8767 85.3826 61.2114 85.9109 59.2069 85.9109C54.255 85.9109 50.0957 81.7904 50.0957 76.3465C50.0957 70.9026 54.255 66.7821 59.2069 66.7821C61.2114 66.7821 62.8741 67.3104 64.2364 68.1806V67.1991H70.3615V85.5354V85.5328ZM64.2364 79.1798V73.508C63.102 72.1846 61.7786 71.7676 60.4189 71.7676C57.9249 71.7676 56.1094 73.8084 56.1094 76.3413C56.1094 78.8742 57.9249 80.8788 60.4189 80.8788C61.7812 80.8788 63.1046 80.5007 64.2364 79.1772V79.1798Z" fill="#36BAA6"/>
<path d="M86.2778 78.0062H92.061C91.644 82.7327 87.7514 85.9468 82.6856 85.9468C76.9024 85.9468 72.668 81.9402 72.668 76.3435C72.668 70.7468 76.9024 66.7791 82.6856 66.7791C87.7514 66.7791 91.6466 69.9931 92.061 74.7196H86.2778C85.9748 73.0569 84.5762 71.9588 82.6856 71.9588C80.0776 71.9588 78.49 73.8495 78.49 76.3435C78.49 78.8376 80.0776 80.767 82.6856 80.767C84.5762 80.767 85.9748 79.6715 86.2778 78.0062Z" fill="#36BAA6"/>
<path d="M107.45 78.0062H113.233C112.816 82.7327 108.923 85.9468 103.858 85.9468C98.0743 85.9468 93.8398 81.9402 93.8398 76.3435C93.8398 70.7468 98.0743 66.7791 103.858 66.7791C108.923 66.7791 112.818 69.9931 113.233 74.7196H107.45C107.147 73.0569 105.748 71.9588 103.858 71.9588C101.249 71.9588 99.6619 73.8495 99.6619 76.3435C99.6619 78.8376 101.249 80.767 103.858 80.767C105.748 80.767 107.147 79.6715 107.45 78.0062Z" fill="#36BAA6"/>
<path d="M127.941 72.7175C124.955 72.8315 123.064 73.624 121.627 75.0614V85.5349H115.502V67.1985H121.627V69.1642C123.253 67.7657 125.219 66.8955 127.941 66.8955V72.7175Z" fill="#36BAA6"/>
<path d="M149 85.5337H142.875V84.3242C141.401 85.4586 139.813 86.1009 137.845 86.1009C133.194 86.1009 130.019 82.8869 130.019 77.6709V67.1974H136.144V76.7256C136.144 79.3336 137.506 80.5819 139.508 80.5819C140.642 80.5819 141.815 79.9396 142.872 78.7664V67.1974H148.997V85.5337H149Z" fill="#36BAA6"/>
<path d="M76.3623 52.0099C62.0222 52.0099 50.3574 40.3451 50.3574 26.0049C50.3574 11.6648 62.0222 0 76.3623 0C90.7024 0 102.367 11.6648 102.367 26.0049C102.367 40.3451 90.7024 52.0099 76.3623 52.0099ZM76.3623 4.05316C64.2572 4.05316 54.408 13.9024 54.408 26.0075C54.408 38.1126 64.2572 47.9619 76.3623 47.9619C88.4673 47.9619 98.3166 38.1126 98.3166 26.0075C98.3166 13.9024 88.4673 4.05316 76.3623 4.05316Z" fill="#36BAA6"/>
<path d="M25.4498 67.1423H19.3066V85.5355H25.4498V67.1423Z" fill="#3463AE"/>
<path d="M35.0719 67.1423H28.9287V85.5355H35.0719V67.1423Z" fill="#3463AE"/>
</svg>
