<svg width="18" height="19" viewBox="0 0 18 19" fill="none" xmlns="http://www.w3.org/2000/svg">
<path fill-rule="evenodd" clip-rule="evenodd" d="M14.5464 1.13838L16.2449 2.49093C16.4089 2.64531 16.5014 2.86094 16.5001 3.0862C16.499 3.31145 16.4042 3.52606 16.2384 3.67862L14.9477 5.22316L10.556 10.4609C10.479 10.5489 10.3768 10.6107 10.2631 10.6377L7.98534 11.154C7.68652 11.169 7.42631 10.9517 7.3877 10.6551V8.31443C7.3954 8.20152 7.44084 8.09457 7.51677 8.01073L11.8272 3.13738L13.3066 1.37049C13.5993 0.986832 14.1346 0.8866 14.5464 1.13838Z" fill="#4EB7F2" stroke="#4EB7F2" stroke-width="2" stroke-linecap="round" stroke-linejoin="round"/>
<path d="M8.39949 3.84044C8.84875 3.84044 9.21298 3.47624 9.21298 3.02696C9.21298 2.57768 8.84875 2.21347 8.39949 2.21347V3.84044ZM5.36249 3.02696V2.21347H5.36053L5.36249 3.02696ZM1.3135 7.09444H2.12698V7.0926L1.3135 7.09444ZM1.3135 13.1956L2.12698 13.1973V13.1956H1.3135ZM5.36249 17.263L5.36053 18.0765H5.36249V17.263ZM11.4365 17.263V18.0765H11.4385L11.4365 17.263ZM15.4855 13.1956H14.672V13.1973L15.4855 13.1956ZM16.299 9.12815C16.299 8.67878 15.9348 8.31467 15.4855 8.31467C15.0362 8.31467 14.672 8.67878 14.672 9.12815H16.299ZM12.579 2.82718C12.4075 2.4119 11.9319 2.21422 11.5166 2.38566C11.1012 2.5571 10.9036 3.03273 11.0751 3.44801L12.579 2.82718ZM15.1231 6.01334C15.5617 5.91637 15.8388 5.48213 15.7418 5.04345C15.6448 4.60476 15.2106 4.32774 14.7719 4.42472L15.1231 6.01334ZM4.35051 13.3995C3.90124 13.3995 3.53702 13.7636 3.53702 14.213C3.53702 14.6622 3.90124 15.0265 4.35051 15.0265V13.3995ZM12.4496 15.0265C12.8988 15.0265 13.2631 14.6622 13.2631 14.213C13.2631 13.7636 12.8988 13.3995 12.4496 13.3995V15.0265ZM8.39949 2.21347H5.36249V3.84044H8.39949V2.21347ZM5.36053 2.21347C2.67017 2.21993 0.494252 4.40577 0.500011 7.09617L2.12698 7.0926C2.12314 5.30067 3.57247 3.84475 5.36444 3.84044L5.36053 2.21347ZM0.500011 7.09444V13.1956H2.12698V7.09444H0.500011ZM0.500011 13.1937C0.494252 15.8841 2.67017 18.07 5.36053 18.0765L5.36444 16.4495C3.57247 16.4452 2.12314 14.9893 2.12698 13.1973L0.500011 13.1937ZM5.36249 18.0765H11.4365V16.4495H5.36249V18.0765ZM11.4385 18.0765C14.1288 18.07 16.3047 15.8841 16.299 13.1937L14.672 13.1973C14.6758 14.9893 13.2265 16.4452 11.4346 16.4495L11.4385 18.0765ZM16.299 13.1956V9.12815H14.672V13.1956H16.299ZM11.0751 3.44801C11.2865 3.9601 11.7178 4.68592 12.3624 5.24675C13.0216 5.82043 13.969 6.26846 15.1231 6.01334L14.7719 4.42472C14.2675 4.53621 13.8293 4.36654 13.4303 4.01935C13.0165 3.65931 12.7168 3.16111 12.579 2.82718L11.0751 3.44801ZM4.35051 15.0265H12.4496V13.3995H4.35051V15.0265Z" fill="#4EB7F2"/>
</svg>
