<svg width="54" height="54" viewBox="0 0 54 54" fill="none" xmlns="http://www.w3.org/2000/svg">
<path id="Vector" d="M54 27C54 41.915 41.9106 54 27 54C12.0894 54 0 41.915 0 27C0 12.0937 12.0894 0 27 0C41.9106 0 54 12.0937 54 27ZM27 32.4436C24.2341 32.4436 21.9919 34.6857 21.9919 37.4516C21.9919 40.2175 24.2341 42.4597 27 42.4597C29.7659 42.4597 32.0081 40.2175 32.0081 37.4516C32.0081 34.6857 29.7659 32.4436 27 32.4436ZM22.2453 14.4422L23.0529 29.2486C23.0907 29.9415 23.6635 30.4839 24.3574 30.4839H29.6426C30.3365 30.4839 30.9093 29.9415 30.9471 29.2486L31.7547 14.4422C31.7955 13.6938 31.1997 13.0645 30.4502 13.0645H23.5497C22.8002 13.0645 22.2045 13.6938 22.2453 14.4422Z" fill="#FF1616"/>
</svg>
