<?xml version="1.0" encoding="UTF-8"?><svg id="Layer_1" xmlns="http://www.w3.org/2000/svg" viewBox="0 0 1080 1080"><defs><style>.cls-1{fill:#36baa6;}.cls-2{fill:#3463ae;}</style></defs><g><rect class="cls-2" x="498.59" y="442.89" width="23.72" height="71.02"/><rect class="cls-2" x="534.62" y="442.89" width="23.72" height="71.02"/><rect class="cls-2" x="570.65" y="442.89" width="23.72" height="71.02"/><g><path class="cls-1" d="M350.59,704.04h-23.65v-50.51h-33.58v50.51h-23.65v-50.51h-17.37v-20.29h17.37v-5.55c0-22.48,14.45-36.06,33.58-36.06,10.95,0,16.64,1.46,29.34,4.53l-3.8,19.85c-8.9-1.75-13.72-2.92-21.75-2.92-8.9,0-13.72,5.55-13.72,15.04v5.11h57.22v70.8Z"/><path class="cls-1" d="M437.59,663.6v40.44h-23.79v-36.64c0-10.07-5.11-14.89-12.85-14.89-4.38,0-9.05,2.48-13.14,7.15v44.38h-23.65v-70.8h23.65v4.82c5.69-4.53,11.97-7.01,19.56-7.01,17.96,0,30.22,12.41,30.22,32.55Z"/><path class="cls-1" d="M524.01,704.04h-23.65v-3.94c-5.25,3.36-11.68,5.4-19.42,5.4-19.12,0-35.18-15.91-35.18-36.93s16.06-36.93,35.18-36.93c7.74,0,14.16,2.04,19.42,5.4v-3.79h23.65v70.8Zm-23.65-24.53v-21.9c-4.38-5.11-9.49-6.72-14.74-6.72-9.63,0-16.64,7.88-16.64,17.66s7.01,17.52,16.64,17.52c5.26,0,10.37-1.46,14.74-6.57Z"/><path class="cls-1" d="M585.47,674.98h22.33c-1.61,18.25-16.64,30.66-36.2,30.66-22.33,0-38.68-15.47-38.68-37.08s16.35-36.93,38.68-36.93c19.56,0,34.6,12.41,36.2,30.66h-22.33c-1.17-6.42-6.57-10.66-13.87-10.66-10.07,0-16.2,7.3-16.2,16.93s6.13,17.08,16.2,17.08c7.3,0,12.7-4.23,13.87-10.66Z"/><path class="cls-1" d="M667.22,674.98h22.33c-1.61,18.25-16.64,30.66-36.2,30.66-22.33,0-38.68-15.47-38.68-37.08s16.35-36.93,38.68-36.93c19.56,0,34.6,12.41,36.2,30.66h-22.33c-1.17-6.42-6.57-10.66-13.87-10.66-10.07,0-16.2,7.3-16.2,16.93s6.13,17.08,16.2,17.08c7.3,0,12.7-4.23,13.87-10.66Z"/><path class="cls-1" d="M746.35,654.55c-11.53,.44-18.83,3.5-24.38,9.05v40.44h-23.65v-70.8h23.65v7.59c6.28-5.4,13.87-8.76,24.38-8.76v22.48Z"/><path class="cls-1" d="M827.66,704.04h-23.65v-4.67c-5.69,4.38-11.82,6.86-19.42,6.86-17.96,0-30.22-12.41-30.22-32.55v-40.44h23.65v36.79c0,10.07,5.26,14.89,12.99,14.89,4.38,0,8.91-2.48,12.99-7.01v-44.67h23.65v70.8Z"/></g><path class="cls-1" d="M547.2,574.59c-55.37,0-100.41-45.04-100.41-100.41s45.04-100.41,100.41-100.41,100.41,45.04,100.41,100.41-45.04,100.41-100.41,100.41Zm0-185.17c-46.74,0-84.77,38.03-84.77,84.77s38.03,84.77,84.77,84.77,84.77-38.03,84.77-84.77-38.03-84.77-84.77-84.77Z"/></g><rect class="cls-2" x="326.88" y="633.02" width="23.72" height="71.02"/><rect class="cls-2" x="364.05" y="633.02" width="23.72" height="71.02"/><rect class="cls-2" x="269.83" y="633.02" width="23.72" height="71.02"/></svg>