<svg xmlns="http://www.w3.org/2000/svg" width="22" height="22" viewBox="0 0 22 22" fill="none">
  <g clip-path="url(#clip0_1346_5489)">
    <path d="M6.12857 10.2143C5.78142 10.2143 5.5 10.4957 5.5 10.8429V11.1571C5.5 11.5043 5.78142 11.7857 6.12857 11.7857H15.8714C16.2186 11.7857 16.5 11.5043 16.5 11.1571V10.8429C16.5 10.4957 16.2186 10.2143 15.8714 10.2143H6.12857Z" fill="black"/>
    <path fill-rule="evenodd" clip-rule="evenodd" d="M11 0.785721C5.35881 0.785721 0.785706 5.35882 0.785706 11C0.785706 16.6412 5.35881 21.2143 11 21.2143C16.6412 21.2143 21.2143 16.6412 21.2143 11C21.2143 5.35882 16.6412 0.785721 11 0.785721ZM2.35713 11C2.35713 6.22663 6.22739 2.35715 11 2.35715C15.7726 2.35715 19.6428 6.22663 19.6428 11C19.6428 15.7734 15.7726 19.6429 11 19.6429C6.22739 19.6429 2.35713 15.7734 2.35713 11Z" fill="black"/>
  </g>
  <defs>
    <clipPath id="clip0_1346_5489">
      <rect width="22" height="22" fill="white"/>
    </clipPath>
  </defs>
</svg>