<svg width="20" height="20" viewBox="0 0 20 20" fill="none" xmlns="http://www.w3.org/2000/svg">
<path d="M16.6699 0H14.7699C12.5899 0 11.4399 1.15 11.4399 3.33V5.23C11.4399 7.41 12.5899 8.56 14.7699 8.56H16.6699C18.8499 8.56 19.9999 7.41 19.9999 5.23V3.33C19.9999 1.15 18.8499 0 16.6699 0Z" fill="#4EB7F2"/>
<path d="M5.24 11.43H3.34C1.15 11.43 0 12.58 0 14.76V16.66C0 18.85 1.15 20 3.33 20H5.23C7.41 20 8.56 18.85 8.56 16.67V14.77C8.57 12.58 7.42 11.43 5.24 11.43Z" fill="#4EB7F2"/>
<path d="M4.29 8.58C6.6593 8.58 8.58 6.6593 8.58 4.29C8.58 1.9207 6.6593 0 4.29 0C1.9207 0 0 1.9207 0 4.29C0 6.6593 1.9207 8.58 4.29 8.58Z" fill="#4EB7F2"/>
<path d="M15.7099 20C18.0792 20 19.9999 18.0793 19.9999 15.71C19.9999 13.3407 18.0792 11.42 15.7099 11.42C13.3406 11.42 11.4199 13.3407 11.4199 15.71C11.4199 18.0793 13.3406 20 15.7099 20Z" fill="#4EB7F2"/>
</svg>
