<svg xmlns="http://www.w3.org/2000/svg" width="32" height="33" viewBox="0 0 32 33" fill="none">
<g clip-path="url(#clip0_1213_1634)">
<mask id="mask0_1213_1634" style="mask-type:alpha" maskUnits="userSpaceOnUse" x="0" y="0" width="32" height="33">
<path d="M32 16.5C32 7.66344 24.8366 0.5 16 0.5C7.16344 0.5 0 7.66344 0 16.5C0 25.3366 7.16344 32.5 16 32.5C24.8366 32.5 32 25.3366 32 16.5Z" fill="white"/>
</mask>
<g mask="url(#mask0_1213_1634)">
<path d="M32 0.5H0V32.5H32V0.5Z" fill="#064061"/>
<path d="M16.1638 5.14145C7.43605 6.52379 1.48141 14.7196 2.86375 23.4474C4.24609 32.1752 12.4419 38.1298 21.1697 36.7475C29.8975 35.3651 35.8521 27.1693 34.4698 18.4415C33.0874 9.71375 24.8916 3.75911 16.1638 5.14145Z" fill="#98DAFF"/>
<path d="M7.12744 18.3552C7.14287 19.2391 7.62585 20.0787 8.47013 20.6891C9.3144 21.2996 10.4508 21.631 11.6294 21.6105C12.8079 21.5899 13.9321 21.219 14.7546 20.5794C15.577 19.9399 16.0304 19.084 16.015 18.2001" fill="#064061"/>
<path d="M8.39845 14.7769C8.38988 14.2861 8.0845 13.8934 7.71637 13.8998C7.34824 13.9062 7.05675 14.3093 7.06532 14.8002C7.07389 15.291 7.37926 15.6837 7.7474 15.6773C8.11553 15.6709 8.40702 15.2678 8.39845 14.7769Z" fill="#064061"/>
<path d="M15.5086 14.6528C15.5 14.162 15.1946 13.7693 14.8265 13.7757C14.4583 13.7821 14.1669 14.1852 14.1754 14.6761C14.184 15.1669 14.4894 15.5596 14.8575 15.5532C15.2256 15.5468 15.5171 15.1436 15.5086 14.6528Z" fill="#064061"/>
</g>
</g>
<defs>
<clipPath id="clip0_1213_1634">
<rect width="32" height="32" fill="white" transform="translate(0 0.5)"/>
</clipPath>
</defs>
</svg>