<svg width="735" height="509" viewBox="0 0 735 509" fill="none" xmlns="http://www.w3.org/2000/svg">
<g opacity="0.8">
<path d="M562.981 367.171L491.599 366.343L539.68 236.18H577.088C581.817 236.18 585.393 240.451 584.565 245.101L562.981 367.171Z" fill="#86CBB6"/>
<path d="M445.252 448.24L452.949 471.365L476.223 463.026L464.872 438.324L445.252 448.24Z" fill="#E9AD96"/>
<path d="M450.721 463.677C450.721 463.677 455.168 467.473 464.371 464.188C473.564 460.903 473.001 455.734 473.001 455.734C473.001 455.734 479.324 460.137 480.504 469.674C481.684 479.211 483.7 489.33 483.7 489.33L480.917 489.779C480.917 489.779 478.637 478.26 471.222 476.931C463.807 475.61 464.248 491.742 455.582 493.865C446.917 495.987 416.959 500.091 416.959 500.091C416.959 500.091 415.876 495.582 429.587 489.048C443.315 482.522 450.721 463.677 450.721 463.677Z" fill="#047D80"/>
<path d="M379.647 439.425L364.456 465.218L382.2 475.125L398.28 450.186L379.647 439.425Z" fill="#E9AD96"/>
<path d="M365.769 462.321C365.769 462.321 368.331 467.578 378.071 468.248C387.811 468.917 389.36 463.95 389.36 463.95C389.36 463.95 393.402 470.52 390.664 479.731C387.934 488.942 385.741 499.025 385.741 499.025L383.011 498.329C383.011 498.329 385.53 486.864 379.26 482.681C372.99 478.498 366.94 493.468 358.152 491.954C349.363 490.439 320.259 482.232 320.259 482.232C320.259 482.232 321.06 477.661 336.251 477.159C351.441 476.658 365.769 462.321 365.769 462.321Z" fill="#047D80"/>
<path d="M542.886 130.225C542.886 130.225 533.032 128.895 530.812 130.225C528.593 131.555 530.812 141.303 530.812 141.303L543.775 141.858L542.886 130.225Z" fill="#E9AD96"/>
<path d="M473.018 290.232C473.018 290.232 415.505 302.64 401.371 328.724C394.221 341.915 446.326 459.565 446.326 459.565L471.459 446.074C471.459 446.074 441.386 357.106 450.685 346.864C459.985 336.632 561.053 292.671 561.053 292.671L473.018 290.232Z" fill="#63CF9D"/>
<path d="M507.758 176.501C507.758 176.501 515.78 175.7 518.712 175.339C521.636 174.969 529.306 175.339 529.306 175.339C529.306 175.339 548.372 184.356 553.664 207.569C558.956 230.782 564.249 251.511 563.034 269.652C561.818 287.793 560.999 292.68 560.999 292.68L473.035 290.241C473.035 290.241 495.843 191.692 497.058 188.028C498.265 184.347 507.758 176.501 507.758 176.501Z" fill="#FFE89C"/>
<path d="M524.798 175.312C519.03 184.673 511.967 180.076 512.311 176.343L513.077 168.523C513.077 168.523 497.886 175.673 494.637 145.644C494.522 144.491 494.408 143.284 494.346 142.008C493.008 135.262 513.455 126.491 515.032 128.93C516.59 131.387 528.091 140.845 529.764 141.488C532.16 142.421 531.138 147.494 530.883 150.303C530.627 153.094 524.991 159.074 524.991 159.074L524.798 175.312Z" fill="#E9AD96"/>
<path d="M455.952 285.283C455.952 285.283 481.921 194.897 495.597 183.017C500.969 178.35 511.184 175.339 511.184 175.339L490.093 283.24L474.48 281.646L473.512 285.626L455.952 285.283Z" fill="#B9E6E3"/>
<path d="M525.758 174.062V297.488C525.758 297.488 547.042 300.799 561.053 293.675C572.659 287.775 572.325 282.218 572.325 282.218L559.45 199.353C559.45 199.353 607.804 172.08 607.813 151.113C607.822 134.742 543.229 127.257 543.229 127.257L538.042 143.02L583.209 155.34C583.209 155.34 561.158 167.66 552.52 170.522C544.709 173.111 525.758 174.062 525.758 174.062Z" fill="#B9E6E3"/>
<path d="M369.599 451.727L394.018 464.285C394.018 464.285 457.765 369.39 464.74 361.016C471.714 352.641 529.958 365.621 551.33 339.758C570.774 316.228 561.052 292.663 561.052 292.663C561.052 292.663 543.062 292.046 521.936 291.579C519.259 291.518 457.079 310.063 450.782 314.898C417.495 340.453 369.599 451.727 369.599 451.727Z" fill="#75DFAE"/>
<path d="M542.252 140.396C544.215 139.938 545.977 138.291 546.153 136.275C546.311 134.469 545.149 132.682 543.511 131.916C541.873 131.149 539.874 131.343 538.307 132.241C537.901 132.47 537.523 132.752 537.179 133.06C537.628 131.783 537.884 130.586 537.981 129.644C538.122 128.27 537.998 127.416 537.831 127.407C537.435 127.372 537.021 130.647 535.277 134.232C535.242 134.311 535.207 134.372 535.163 134.452C529.113 123.092 517.771 120.732 515.226 120.732C512.029 120.732 506.446 118.979 498.3 127.442C490.155 135.905 494.619 145.01 494.619 145.01L495.984 143.751L508.005 140.651C507.054 137.411 508.454 133.386 509.246 131.51L509.326 131.44C511.712 143.663 525.106 145.001 525.256 145.01L524.798 168.945C539.381 165.828 538.756 149.616 538.527 146.771H538.544C538.342 145.38 538.069 142.307 537.743 141.065C537.655 140.722 537.54 140.422 537.444 140.096C537.963 140.581 538.527 141.144 539.081 141.796C540.878 143.848 541.803 145.917 542.164 145.803C542.331 145.75 542.313 145.134 542.005 144.2C541.697 143.275 541.063 142.06 540.085 140.924C539.936 140.757 539.786 140.607 539.627 140.449C540.508 140.572 541.389 140.598 542.252 140.396Z" fill="#047D80"/>
<path d="M222.59 207.754C222.59 207.754 228.111 205.658 229.326 204.989C230.542 204.32 233.087 203.888 232.638 204.989C232.197 206.09 228.217 208.855 228.217 208.855L222.59 207.754Z" fill="#F38FA7"/>
<path d="M152.405 224.855L168.159 244.246C168.159 244.246 190.905 226.59 204.748 215.856C208.887 212.65 211.846 209.022 213.105 208.388C218.6 205.632 232.276 208.414 236.574 208.388C240.871 208.362 245.556 207.164 245.556 207.164C245.556 207.164 248.92 208.881 241.32 211.77C233.72 214.649 216.98 216.789 216.98 216.789C216.98 216.789 177.599 268.208 164.777 265.055C151.956 261.903 136.034 238.514 136.034 238.514L152.405 224.855Z" fill="#F8B3AE"/>
<path d="M131.217 459.864L141.794 443.485L123.01 432.874L114.768 450.574L131.217 459.864Z" fill="#F8B3AE"/>
<path d="M133.965 459.133L114.222 447.985C114.222 447.985 102.915 458.358 104.271 463.219L126.876 475.61L128.127 473.39L139.24 482.963L164.091 497C164.091 497 167.587 493.917 156.914 483.799C146.241 473.672 133.965 459.133 133.965 459.133Z" fill="#047D80"/>
<path d="M204.247 483.306L205.391 463.845H183.825L185.349 483.306H204.247Z" fill="#F8B3AE"/>
<path d="M206.272 481.316H183.597C183.597 481.316 178.859 495.908 182.425 499.474H208.201V496.603L222.581 499.474H251.122C251.122 499.474 252.654 495.071 238.379 491.504C224.105 487.938 206.272 481.316 206.272 481.316Z" fill="#047D80"/>
<path d="M169.762 330.159L122.411 433.781L144.365 446.136L202.652 358.339L199.465 328.028L169.762 330.159Z" fill="#047D80"/>
<path d="M54.4282 290.382C54.4282 290.382 36.5694 343.896 77.7292 359.202L96.6711 302.561L54.4282 290.382Z" fill="#009F8D"/>
<path d="M83.0484 302.217C83.0484 302.217 203.331 286.428 216.681 313.824C230.031 341.219 208.571 466.618 208.571 466.618L182.117 463.836C182.117 463.836 182.461 358.479 176.279 354.076C170.097 349.673 85.1442 357.801 76.1532 357.405C54.27 356.454 37.3622 308.531 83.0484 302.217Z" fill="#009F8D"/>
<path d="M43.7812 365.102H51.7684L28.5907 234.111H20.6035L43.7812 365.102Z" fill="#C9EFD8"/>
<path d="M43.7816 365.102H129.263V355.415H42.0645L43.7816 365.102Z" fill="#C9EFD8"/>
<path d="M128.312 499.025H133.507L120.201 368.519C119.778 366.062 117.647 364.274 115.164 364.274H54.481C51.9449 364.274 49.7962 366.123 49.4263 368.633L38.0664 499.034H43.4029L53.9174 373.688C54.2961 371.187 56.4448 369.329 58.9721 369.329H110.893C113.385 369.329 115.507 371.125 115.93 373.573L128.312 499.025Z" fill="#86CBB6"/>
<path d="M696.563 499.307H12.3281V508.113H696.563V499.307Z" fill="#1B6C8A"/>
<path d="M72.7536 181.24C72.7536 181.24 -20.8025 71.842 4.26848 45.3092C29.3395 18.7675 74.6293 102.831 72.7536 181.24Z" fill="#63CF9D"/>
<path d="M13.3474 58.2982C22.5938 70.3098 30.986 83.0082 38.3832 96.235C45.34 108.687 51.4778 121.605 56.8055 134.832C61.7018 147.002 65.9199 159.436 69.5216 172.047C72.727 183.266 75.4305 194.635 77.6761 206.091C79.5518 215.69 81.0928 225.341 82.4578 235.028C82.6075 236.094 82.81 237.15 82.9333 238.216C82.995 238.727 83.7963 238.727 83.7347 238.216C83.2151 233.76 82.7836 229.295 82.1584 224.848C81.4539 219.838 80.6613 214.836 79.7455 209.86C77.6761 198.509 75.1487 187.237 72.137 176.106C68.729 163.505 64.7047 151.079 59.9934 138.909C54.877 125.691 48.9857 112.773 42.2226 100.321C34.984 86.9973 26.8119 74.158 17.5479 62.1465C16.4031 60.6671 15.2495 59.1964 14.0871 57.7434C13.7525 57.3207 13.0216 57.8755 13.3474 58.2982Z" fill="#1B6C8A"/>
<path d="M78.055 149.529C78.055 149.529 149.437 24.5266 119.831 3.16301C90.2251 -18.2006 61.4995 72.8722 78.055 149.529Z" fill="#009F8D"/>
<path d="M112.505 17.2352C105.372 30.7174 99.4278 44.7896 94.5404 59.2316C89.97 72.7314 86.3596 86.5482 83.6032 100.532C81.0495 113.486 79.2266 126.581 78.073 139.737C77.0515 151.388 76.5583 163.073 76.5319 174.768C76.5143 184.631 76.8401 194.511 77.6327 204.348C77.7208 205.396 77.8616 206.435 77.9409 207.483C77.9761 207.993 78.7863 208.002 78.7422 207.483C78.4252 203.027 78.3196 198.527 78.1699 194.062C78.0025 189.034 77.9057 183.997 77.8793 178.968C77.8176 167.547 78.2051 156.117 79.0945 144.721C80.0984 131.759 81.7275 118.831 84.0523 106.036C86.5621 92.1929 89.8996 78.4994 94.0913 65.0701C98.6089 50.6104 104.201 36.5206 110.752 22.8711C111.58 21.1363 112.434 19.4192 113.297 17.702C113.579 17.1736 112.787 16.7069 112.505 17.2352Z" fill="#1B6C8A"/>
<path d="M82.3963 206.479C82.3963 206.479 158.243 109.277 138.544 85.694C118.845 62.1024 81.7798 136.805 82.3963 206.479Z" fill="#75DFAE"/>
<path d="M131.632 93.9277C124.578 102.549 118.317 111.769 112.76 121.42C107.573 130.429 103.038 139.79 99.0843 149.406C95.4121 158.336 92.2419 167.459 89.5649 176.732C87.1872 184.948 85.1794 193.269 83.5151 201.653C82.1237 208.68 80.9701 215.76 80.1952 222.876C80.1159 223.633 80.0895 224.399 79.9926 225.156C79.931 225.667 80.7324 225.667 80.794 225.156C80.9877 223.589 81.3135 222.03 81.5513 220.463C81.8067 218.79 82.0709 217.125 82.3439 215.461C82.9427 211.859 83.5943 208.266 84.2812 204.682C85.8663 196.484 87.7772 188.356 90.0316 180.325C92.5678 171.281 95.5442 162.342 98.9786 153.598C102.748 143.999 107.107 134.63 112.02 125.577C117.234 115.978 123.169 106.793 129.677 98.0225C130.531 96.8689 131.403 95.7242 132.283 94.5882C132.653 94.1215 132.019 93.4522 131.632 93.9277Z" fill="#1B6C8A"/>
<path d="M44.6182 221.757L45.0761 224.813L46.0448 231.321L55.344 293.774H110.858L120.166 231.321L121.126 224.813L121.584 221.757H44.6182Z" fill="#C9EFD8"/>
<path d="M43.5441 227.622H122.676C125.212 227.622 127.264 225.57 127.264 223.034C127.264 220.498 125.212 218.446 122.676 218.446H43.5441C41.0079 218.446 38.9561 220.498 38.9561 223.034C38.9473 225.561 41.0079 227.622 43.5441 227.622Z" fill="#1B6C8A"/>
<path d="M336.435 266.006C339.297 256.17 340.627 242.362 341.375 232.147C341.525 230.139 341.622 228.052 340.9 226.168C340.187 224.283 338.443 222.636 336.426 222.68C334.736 222.707 333.239 223.904 332.376 225.366C331.513 226.828 331.178 228.519 330.852 230.183C329.003 239.659 327.153 249.134 325.304 258.618C323.534 255.245 321.192 252.172 318.418 249.565C317.176 248.394 315.38 247.258 313.891 248.086C312.544 248.835 312.394 250.675 312.447 252.207C312.615 256.848 313.213 261.48 314.226 266.015" fill="#FFE89C"/>
<path d="M340.424 265.029C340.424 265.029 345.303 284.323 325.595 285.213C307.463 286.031 311.822 265.029 311.822 265.029H340.424Z" fill="#B9E6E3"/>
<path d="M346.395 204.32L375.684 285.45L510.505 285.398L509.572 281.426L458.373 277.683L434.077 203.069L346.395 204.32Z" fill="#009F8D"/>
<path d="M408.716 247.628C409.253 250.631 407.607 253.431 405.044 253.889C402.482 254.347 399.972 252.278 399.435 249.275C398.897 246.272 400.544 243.472 403.107 243.014C405.669 242.556 408.179 244.625 408.716 247.628Z" fill="white"/>
<path d="M678.72 260.194C679.151 262.616 677.821 264.879 675.752 265.249C673.683 265.619 671.657 263.946 671.226 261.524C670.794 259.102 672.124 256.839 674.193 256.469C676.263 256.1 678.288 257.773 678.72 260.194Z" fill="white"/>
<path d="M704.54 285.618H133.807V305.37H704.54V285.618Z" fill="#C9EFD8"/>
<path d="M288.821 280.889H280.076L311.03 201.158H319.774L288.821 280.889Z" fill="#75DFAE"/>
<path d="M286.505 286.34H191.17V280.889H288.821L286.505 286.34Z" fill="#63CF9D"/>
<path d="M276.835 282.456H272.221V284.763H276.835V282.456Z" fill="#047D80"/>
<path d="M270.944 282.456H261.028V284.763H270.944V282.456Z" fill="#047D80"/>
<path d="M259.735 282.456H255.12V284.763H259.735V282.456Z" fill="#047D80"/>
<path d="M211.952 284.763C212.59 284.763 213.106 284.247 213.106 283.61C213.106 282.973 212.59 282.456 211.952 282.456C211.315 282.456 210.799 282.973 210.799 283.61C210.799 284.247 211.315 284.763 211.952 284.763Z" fill="#047D80"/>
<path d="M208.13 284.763C208.767 284.763 209.284 284.247 209.284 283.61C209.284 282.973 208.767 282.456 208.13 282.456C207.493 282.456 206.977 282.973 206.977 283.61C206.977 284.247 207.493 284.763 208.13 284.763Z" fill="#047D80"/>
<path d="M198.549 499.025L187.444 499.069V305.537H198.549V499.025Z" fill="#75DFAE"/>
<path d="M129.782 183.951C140.631 188.46 163.879 235.845 163.879 235.845L145.747 255.395L117.374 214.79L129.782 183.951Z" fill="#EFD792"/>
<path d="M641.162 305.361H630.058V499.016H641.162V305.361Z" fill="#75DFAE"/>
<path d="M50.5713 290.382C50.5713 290.382 68.571 221.835 90.8416 195.293C104.297 179.257 116.837 179.257 116.837 179.257L129.782 183.951C129.782 183.951 137.585 202.823 136.422 228.079C135.453 249.125 122.693 298.607 122.693 298.607L91.8808 301.187L50.5713 290.382Z" fill="#FFE89C"/>
<path d="M112.231 236.391L109.501 244.097C109.501 244.097 159.52 271.193 163.87 272.541C168.229 273.888 186.123 280.73 187.902 281.813C189.681 282.897 187.444 284.772 187.444 284.772C187.444 284.772 171.672 284.605 169.682 284.041C167.692 283.478 164.724 281.84 163.095 281.294C161.466 280.748 87.0191 265.698 85.39 255.395C83.7608 245.092 92.8928 230.791 92.8928 230.791L112.231 236.391Z" fill="#F8B3AE"/>
<path d="M117.876 173.525C118.668 176.193 120.685 168.734 120.685 168.734C120.685 168.734 122.517 164.63 122.103 161.592C122.103 161.592 119.276 161.205 119.945 153.068C120.271 149.052 125.07 149.493 125.687 154.574L127.351 155.402C127.351 155.402 131.913 141.136 139.847 145.644C139.847 145.644 142.445 149.739 147.094 149.871C151.542 149.995 153.223 149.581 153.223 149.581C153.223 149.581 153.981 154.547 159.256 152.98C164.531 151.421 165.675 145.979 164.486 143.452C163.8 141.99 166.758 138.15 164.363 136.16C159.749 132.33 149.155 137.358 142.427 128.754C140.349 126.095 133.63 127.064 132.388 130.207C131.076 127.618 127.968 128.983 125.22 129.934C116.837 132.84 114.327 149.149 116.458 162.693C116.881 165.388 117.876 173.525 117.876 173.525Z" fill="#009F8D"/>
<path d="M116.837 179.257C122.526 191.797 129.711 187.711 129.782 183.951L129.896 176.096C129.896 176.096 148.618 186.258 155.188 156.784C155.434 155.657 155.672 154.468 155.883 153.209C157.962 146.657 134.026 141.752 132.177 144.006C130.354 146.278 127.334 155.393 127.334 155.393C128.188 151.324 122.473 148.277 120.738 148.744C118.246 149.405 118.704 154.556 118.642 157.383C118.581 160.183 119.664 166.031 119.664 166.031L116.837 179.257Z" fill="#E9AD96"/>
<path d="M455.855 144.852L446.459 130.084C450.686 126.517 453.161 122.255 453.161 117.667C453.161 105.207 435.029 95.1061 412.67 95.1061C390.311 95.1061 372.18 105.207 372.18 117.667C372.18 130.128 390.311 140.229 412.67 140.229C421.01 140.229 428.759 138.82 435.205 136.407L455.855 144.852Z" fill="#58C6D9"/>
<path d="M455.855 144.852L446.459 130.084C450.686 126.517 453.161 122.255 453.161 117.667C453.161 105.207 435.029 95.1061 412.67 95.1061C390.311 95.1061 372.18 105.207 372.18 117.667C372.18 130.128 390.311 140.229 412.67 140.229C421.01 140.229 428.759 138.82 435.205 136.407L455.855 144.852Z" fill="#86CBB6"/>
<path d="M735 156.872L725.604 171.64C729.831 175.206 732.305 179.469 732.305 184.057C732.305 196.517 714.174 206.618 691.815 206.618C669.456 206.618 651.324 196.517 651.324 184.057C651.324 171.596 669.456 161.495 691.815 161.495C700.154 161.495 707.904 162.904 714.35 165.317L735 156.872Z" fill="#C9EFD8"/>
<path d="M198.161 169.729L207.557 154.961C203.33 151.395 200.856 147.133 200.856 142.545C200.856 130.084 218.988 119.983 241.346 119.983C263.705 119.983 281.837 130.084 281.837 142.545C281.837 155.005 263.705 165.106 241.346 165.106C233.007 165.106 225.258 163.697 218.811 161.284L198.161 169.729Z" fill="#C9EFD8"/>
<path d="M562.981 367.171H477.5V357.484H564.698L562.981 367.171Z" fill="#C9EFD8"/>
<path d="M478.786 499.069L473.6 499.034L486.562 370.597C486.985 368.14 489.116 366.352 491.599 366.352H552.282C554.818 366.352 556.967 368.201 557.337 370.711L568.591 499.034H563.263L552.837 375.766C552.458 373.265 550.31 371.407 547.782 371.407H495.861C493.369 371.407 491.247 373.203 490.824 375.651L478.786 499.069Z" fill="#86CBB6"/>
<path d="M624.563 285.618H552.74V283.733H554.642L554.871 270.013H552.74V268.111H624.563C626.729 268.111 628.482 269.863 628.482 272.03V281.699C628.482 283.865 626.729 285.618 624.563 285.618Z" fill="#009F8D"/>
<path d="M622.493 283.733H553.655V270.013H622.493C624.465 270.013 626.068 271.616 626.068 273.589V280.158C626.068 282.13 624.465 283.733 622.493 283.733Z" fill="#75DFAE"/>
<path d="M556.65 268.12H628.473V266.235H626.571L626.342 252.515H628.482V250.613H556.659C554.493 250.613 552.74 252.366 552.74 254.532V264.201C552.74 266.367 554.493 268.12 556.65 268.12Z" fill="#63CF9D"/>
<path d="M558.728 266.227H627.565V252.507H558.728C556.755 252.507 555.152 254.109 555.152 256.082V262.651C555.152 264.633 556.755 266.227 558.728 266.227Z" fill="#009F8D"/>
<path d="M676.853 305.361H151.189V315.233H676.853V305.361Z" fill="#86CBB6"/>
<path d="M227.662 146.56C229.51 146.56 231.008 145.062 231.008 143.214C231.008 141.366 229.51 139.868 227.662 139.868C225.814 139.868 224.315 141.366 224.315 143.214C224.315 145.062 225.814 146.56 227.662 146.56Z" fill="white"/>
<path d="M243.31 147.027C245.158 147.027 246.656 145.529 246.656 143.681C246.656 141.833 245.158 140.334 243.31 140.334C241.462 140.334 239.964 141.833 239.964 143.681C239.964 145.529 241.462 147.027 243.31 147.027Z" fill="white"/>
<path d="M258.985 147.027C260.833 147.027 262.331 145.529 262.331 143.681C262.331 141.833 260.833 140.334 258.985 140.334C257.137 140.334 255.639 141.833 255.639 143.681C255.639 145.529 257.137 147.027 258.985 147.027Z" fill="white"/>
<path d="M395.225 119.076C397.073 119.076 398.572 117.578 398.572 115.73C398.572 113.882 397.073 112.384 395.225 112.384C393.377 112.384 391.879 113.882 391.879 115.73C391.879 117.578 393.377 119.076 395.225 119.076Z" fill="white"/>
<path d="M410.874 119.543C412.722 119.543 414.22 118.045 414.22 116.197C414.22 114.349 412.722 112.851 410.874 112.851C409.026 112.851 407.527 114.349 407.527 116.197C407.527 118.045 409.026 119.543 410.874 119.543Z" fill="white"/>
<path d="M426.548 119.543C428.397 119.543 429.895 118.045 429.895 116.197C429.895 114.349 428.397 112.851 426.548 112.851C424.7 112.851 423.202 114.349 423.202 116.197C423.202 118.045 424.7 119.543 426.548 119.543Z" fill="white"/>
<path d="M677.487 187.297C679.335 187.297 680.833 185.799 680.833 183.951C680.833 182.103 679.335 180.605 677.487 180.605C675.639 180.605 674.141 182.103 674.141 183.951C674.141 185.799 675.639 187.297 677.487 187.297Z" fill="white"/>
<path d="M693.144 187.773C694.992 187.773 696.49 186.275 696.49 184.427C696.49 182.579 694.992 181.08 693.144 181.08C691.296 181.08 689.798 182.579 689.798 184.427C689.798 186.275 691.296 187.773 693.144 187.773Z" fill="white"/>
<path d="M708.819 187.773C710.667 187.773 712.165 186.275 712.165 184.427C712.165 182.579 710.667 181.08 708.819 181.08C706.971 181.08 705.473 182.579 705.473 184.427C705.473 186.275 706.971 187.773 708.819 187.773Z" fill="white"/>
</g>
</svg>
