<svg width="280" height="112" viewBox="0 0 280 112" fill="none" xmlns="http://www.w3.org/2000/svg">
<rect width="280" height="112" fill="white"/>
<path d="M123.919 35.9047H117.776V54.298H123.919V35.9047Z" fill="#3463AE"/>
<path d="M133.25 35.9047H127.106V54.298H133.25V35.9047Z" fill="#3463AE"/>
<path d="M142.581 35.9047H136.437V54.298H142.581V35.9047Z" fill="#3463AE"/>
<path d="M79.4455 103.538H73.3204V90.4563H64.6236V103.538H58.4986V90.4563H54V85.2015H58.4986V83.7641C58.4986 77.9421 62.241 74.425 67.1954 74.425C70.0313 74.425 71.5049 74.8031 74.7941 75.5982L73.8099 80.7391C71.5049 80.2859 70.2566 79.9829 68.1769 79.9829C65.872 79.9829 64.6236 81.4203 64.6236 83.8781V85.2015H79.4429V103.538H79.4455Z" fill="#36BAA6"/>
<path d="M101.981 93.0636V103.537H95.8197V94.0478C95.8197 91.4398 94.4963 90.1914 92.4917 90.1914C91.3574 90.1914 90.1479 90.8337 89.0886 92.0432V103.537H82.9636V85.2008H89.0886V86.4491C90.5623 85.2759 92.1887 84.6336 94.1544 84.6336C98.8059 84.6336 101.981 87.8476 101.981 93.0636Z" fill="#36BAA6"/>
<path d="M124.361 103.533H118.236V102.512C116.876 103.383 115.211 103.911 113.206 103.911C108.255 103.911 104.095 99.7904 104.095 94.3465C104.095 88.9026 108.255 84.7821 113.206 84.7821C115.211 84.7821 116.874 85.3104 118.236 86.1806V85.1991H124.361V103.535V103.533ZM118.236 97.1798V91.508C117.102 90.1846 115.778 89.7676 114.418 89.7676C111.924 89.7676 110.109 91.8084 110.109 94.3413C110.109 96.8742 111.924 98.8788 114.418 98.8788C115.781 98.8788 117.104 98.5007 118.236 97.1772V97.1798Z" fill="#36BAA6"/>
<path d="M140.278 96.0062H146.061C145.644 100.733 141.752 103.947 136.686 103.947C130.903 103.947 126.668 99.9402 126.668 94.3435C126.668 88.7468 130.903 84.7791 136.686 84.7791C141.752 84.7791 145.647 87.9931 146.061 92.7196H140.278C139.975 91.0569 138.577 89.9588 136.686 89.9588C134.078 89.9588 132.49 91.8495 132.49 94.3435C132.49 96.8376 134.078 98.767 136.686 98.767C138.577 98.767 139.975 97.6715 140.278 96.0062Z" fill="#36BAA6"/>
<path d="M161.449 96.0062H167.232C166.816 100.733 162.923 103.947 157.857 103.947C152.074 103.947 147.839 99.9402 147.839 94.3435C147.839 88.7468 152.074 84.7791 157.857 84.7791C162.923 84.7791 166.818 87.9931 167.232 92.7196H161.449C161.146 91.0569 159.748 89.9588 157.857 89.9588C155.249 89.9588 153.662 91.8495 153.662 94.3435C153.662 96.8376 155.249 98.767 157.857 98.767C159.748 98.767 161.146 97.6715 161.449 96.0062Z" fill="#36BAA6"/>
<path d="M181.942 90.7175C178.955 90.8315 177.065 91.624 175.627 93.0614V103.535H169.502V85.1985H175.627V87.1642C177.254 85.7657 179.22 84.8955 181.942 84.8955V90.7175Z" fill="#36BAA6"/>
<path d="M203 103.534H196.875V102.324C195.401 103.459 193.814 104.101 191.845 104.101C187.194 104.101 184.019 100.887 184.019 95.6709V85.1974H190.144V94.7256C190.144 97.3336 191.506 98.5819 193.508 98.5819C194.642 98.5819 195.816 97.9396 196.872 96.7664V85.1974H202.997V103.534H203Z" fill="#36BAA6"/>
<path d="M130.363 70.0099C116.022 70.0099 104.358 58.3451 104.358 44.0049C104.358 29.6648 116.022 18 130.363 18C144.703 18 156.367 29.6648 156.367 44.0049C156.367 58.3451 144.703 70.0099 130.363 70.0099ZM130.363 22.0532C118.258 22.0532 108.408 31.9024 108.408 44.0075C108.408 56.1126 118.258 65.9619 130.363 65.9619C142.468 65.9619 152.317 56.1126 152.317 44.0075C152.317 31.9024 142.468 22.0532 130.363 22.0532Z" fill="#36BAA6"/>
<path d="M79.4501 85.1423H73.3069V103.536H79.4501V85.1423Z" fill="#3463AE"/>
<path d="M89.0721 85.1423H82.9289V103.536H89.0721V85.1423Z" fill="#3463AE"/>
<path d="M123.919 35.9047H117.776V54.298H123.919V35.9047Z" fill="#3463AE"/>
<path d="M133.25 35.9047H127.106V54.298H133.25V35.9047Z" fill="#3463AE"/>
<path d="M142.581 35.9047H136.437V54.298H142.581V35.9047Z" fill="#3463AE"/>
<path d="M79.4455 103.538H73.3204V90.4563H64.6236V103.538H58.4986V90.4563H54V85.2015H58.4986V83.7641C58.4986 77.9421 62.241 74.425 67.1954 74.425C70.0313 74.425 71.5049 74.8031 74.7941 75.5982L73.8099 80.7391C71.5049 80.2859 70.2566 79.9829 68.1769 79.9829C65.872 79.9829 64.6236 81.4203 64.6236 83.8781V85.2015H79.4429V103.538H79.4455Z" fill="#36BAA6"/>
<path d="M101.981 93.0636V103.537H95.8197V94.0478C95.8197 91.4398 94.4963 90.1914 92.4917 90.1914C91.3574 90.1914 90.1479 90.8337 89.0886 92.0432V103.537H82.9636V85.2008H89.0886V86.4491C90.5623 85.2759 92.1887 84.6336 94.1544 84.6336C98.8059 84.6336 101.981 87.8476 101.981 93.0636Z" fill="#36BAA6"/>
<path d="M124.361 103.533H118.236V102.512C116.876 103.383 115.211 103.911 113.206 103.911C108.255 103.911 104.095 99.7904 104.095 94.3465C104.095 88.9026 108.255 84.7821 113.206 84.7821C115.211 84.7821 116.874 85.3104 118.236 86.1806V85.1991H124.361V103.535V103.533ZM118.236 97.1798V91.508C117.102 90.1846 115.778 89.7676 114.418 89.7676C111.924 89.7676 110.109 91.8084 110.109 94.3413C110.109 96.8742 111.924 98.8788 114.418 98.8788C115.781 98.8788 117.104 98.5007 118.236 97.1772V97.1798Z" fill="#36BAA6"/>
<path d="M140.278 96.0062H146.061C145.644 100.733 141.752 103.947 136.686 103.947C130.903 103.947 126.668 99.9402 126.668 94.3435C126.668 88.7468 130.903 84.7791 136.686 84.7791C141.752 84.7791 145.647 87.9931 146.061 92.7196H140.278C139.975 91.0569 138.577 89.9588 136.686 89.9588C134.078 89.9588 132.49 91.8495 132.49 94.3435C132.49 96.8376 134.078 98.767 136.686 98.767C138.577 98.767 139.975 97.6715 140.278 96.0062Z" fill="#36BAA6"/>
<path d="M161.449 96.0062H167.232C166.816 100.733 162.923 103.947 157.857 103.947C152.074 103.947 147.839 99.9402 147.839 94.3435C147.839 88.7468 152.074 84.7791 157.857 84.7791C162.923 84.7791 166.818 87.9931 167.232 92.7196H161.449C161.146 91.0569 159.748 89.9588 157.857 89.9588C155.249 89.9588 153.662 91.8495 153.662 94.3435C153.662 96.8376 155.249 98.767 157.857 98.767C159.748 98.767 161.146 97.6715 161.449 96.0062Z" fill="#36BAA6"/>
<path d="M181.942 90.7175C178.955 90.8315 177.065 91.624 175.627 93.0614V103.535H169.502V85.1985H175.627V87.1642C177.254 85.7657 179.22 84.8955 181.942 84.8955V90.7175Z" fill="#36BAA6"/>
<path d="M203 103.534H196.875V102.324C195.401 103.459 193.814 104.101 191.845 104.101C187.194 104.101 184.019 100.887 184.019 95.6709V85.1974H190.144V94.7256C190.144 97.3336 191.506 98.5819 193.508 98.5819C194.642 98.5819 195.816 97.9396 196.872 96.7664V85.1974H202.997V103.534H203Z" fill="#36BAA6"/>
<path d="M130.363 70.0099C116.022 70.0099 104.358 58.3451 104.358 44.0049C104.358 29.6648 116.022 18 130.363 18C144.703 18 156.367 29.6648 156.367 44.0049C156.367 58.3451 144.703 70.0099 130.363 70.0099ZM130.363 22.0532C118.258 22.0532 108.408 31.9024 108.408 44.0075C108.408 56.1126 118.258 65.9619 130.363 65.9619C142.468 65.9619 152.317 56.1126 152.317 44.0075C152.317 31.9024 142.468 22.0532 130.363 22.0532Z" fill="#36BAA6"/>
<path d="M79.4501 85.1423H73.3069V103.536H79.4501V85.1423Z" fill="#3463AE"/>
<path d="M89.0721 85.1423H82.9289V103.536H89.0721V85.1423Z" fill="#3463AE"/>
</svg>
